<svg width="50" height="50" viewBox="0 0 50 50" fill="none" xmlns="http://www.w3.org/2000/svg">
<path fill-rule="evenodd" clip-rule="evenodd" d="M25 50C38.8071 50 50 38.8071 50 25C50 11.1929 38.8071 0 25 0C11.1929 0 0 11.1929 0 25C0 38.8071 11.1929 50 25 50ZM35.9886 15.9722C36.1813 13.7822 33.8686 14.6839 33.8686 14.6839C32.161 15.3908 30.4 16.1091 28.6199 16.8353C23.1004 19.0867 17.3981 21.4126 12.5406 23.7018C9.90665 24.668 11.4485 25.6343 11.4485 25.6343L15.6242 26.9225C17.5513 27.5022 18.5793 26.8581 18.5793 26.8581L27.573 20.7388C30.785 18.5487 30.0142 20.3524 29.2433 21.1253L22.4979 27.5666C21.4701 28.4684 21.984 29.2414 22.4337 29.6278C23.7082 30.7523 26.8433 32.8097 28.212 33.708C28.5682 33.9417 28.8048 34.0969 28.8578 34.1368C29.1791 34.3945 30.9135 35.5539 32.0699 35.2962C33.2262 35.0386 33.3547 33.5571 33.3547 33.5571L34.8965 23.4442C35.1278 21.6885 35.393 20.001 35.6049 18.6532C35.805 17.3801 35.9574 16.4102 35.9886 15.9722Z" fill="#EEFDF1"/>
</svg>
