<svg width="21" height="24" viewBox="0 0 21 24" fill="none" xmlns="http://www.w3.org/2000/svg">
<path d="M0.5 21.0357V17.75C0.5 17.2963 0.873096 16.9286 1.33333 16.9286C1.79357 16.9286 2.16667 17.2963 2.16667 17.75V21.0357C2.16667 21.4894 2.53976 21.8571 3 21.8571H18C18.4602 21.8571 18.8333 21.4894 18.8333 21.0357V17.75C18.8333 17.2963 19.2064 16.9286 19.6667 16.9286C20.1269 16.9286 20.5 17.2963 20.5 17.75V21.0357C20.5 22.3967 19.3807 23.5 18 23.5H3C1.61929 23.5 0.5 22.3967 0.5 21.0357ZM9.66667 1.32143C9.66667 0.867766 10.0398 0.5 10.5 0.5C10.9602 0.5 11.3333 0.867766 11.3333 1.32143V15.767L14.9108 12.2407C15.2362 11.9199 15.7638 11.9199 16.0892 12.2407C16.4146 12.5614 16.4146 13.0814 16.0892 13.4022L11.0892 18.3308C10.7638 18.6516 10.2362 18.6516 9.91081 18.3308L4.91081 13.4022L4.80339 13.2739C4.58978 12.955 4.62603 12.5214 4.91081 12.2407C5.19558 11.9599 5.63552 11.9242 5.95898 12.1348L6.08919 12.2407L9.66667 15.767V1.32143Z" fill="#494949"/>
</svg>
