<svg width="60" height="60" viewBox="0 0 60 60" fill="none" xmlns="http://www.w3.org/2000/svg">
<path fill-rule="evenodd" clip-rule="evenodd" d="M49.0005 9.33336H43.3338V1.66666C43.3336 1.51216 43.2975 1.35984 43.2284 1.22162C43.1594 1.08342 43.0592 0.963091 42.9359 0.870084C42.8125 0.777078 42.6693 0.713917 42.5174 0.685564C42.3655 0.657211 42.2092 0.664431 42.0605 0.706658L11.3938 9.37336H11.3405L11.2405 9.41336L11.1605 9.46002L11.0738 9.51336L11.0005 9.57336L10.9338 9.64002L10.8738 9.71336L10.8205 9.79336L10.7738 9.87336L10.7338 10V10.1867C10.732 10.2222 10.732 10.2578 10.7338 10.2934V56.3534C10.7383 56.6039 10.8367 56.8437 11.0096 57.0252C11.1824 57.2067 11.4171 57.3166 11.6672 57.3334H49.0005C49.2658 57.3334 49.5201 57.228 49.7076 57.0404C49.8952 56.8529 50.0005 56.5986 50.0005 56.3334V10.3334C50.0005 10.0681 49.8952 9.81376 49.7076 9.62622C49.5201 9.43869 49.2658 9.33336 49.0005 9.33336ZM41.3338 9.33336H18.8805L41.3338 2.98666V9.33336ZM48.0005 55.3334H12.6672V11.3334H48.0005V55.3334Z" fill="#00A26F"/>
<path fill-rule="evenodd" clip-rule="evenodd" d="M30.334 18.6666C28.3562 18.6666 26.4228 19.2531 24.7783 20.352C23.1338 21.4508 21.8521 23.0126 21.0952 24.8398C20.3383 26.667 20.1403 28.6777 20.5261 30.6176C20.912 32.5574 21.8644 34.3392 23.2629 35.7377C24.6615 37.1362 26.4433 38.0886 28.3831 38.4745C30.3229 38.8604 32.3336 38.6623 34.1609 37.9054C35.9881 37.1486 37.5499 35.8668 38.6487 34.2224C39.7475 32.5778 40.334 30.6444 40.334 28.6666C40.334 26.0145 39.2805 23.4709 37.4051 21.5956C35.5297 19.7202 32.9862 18.6666 30.334 18.6666ZM30.334 36.6666C28.7517 36.6666 27.2051 36.1974 25.8895 35.3184C24.5739 34.4394 23.5485 33.1899 22.943 31.7281C22.3375 30.2663 22.1791 28.6578 22.4877 27.1059C22.7964 25.554 23.5583 24.1286 24.6771 23.0098C25.796 21.891 27.2215 21.129 28.7733 20.8204C30.3251 20.5117 31.9337 20.6701 33.3955 21.2756C34.8573 21.8811 36.1067 22.9065 36.9857 24.2221C37.8648 25.5376 38.334 27.0844 38.334 28.6666C38.334 30.7884 37.4911 32.8232 35.9909 34.3235C34.4906 35.8238 32.4557 36.6666 30.334 36.6666ZM36.6673 45.3333H24.0007C23.7355 45.3333 23.4811 45.4386 23.2935 45.6262C23.106 45.8137 23.0007 46.0681 23.0007 46.3333C23.0007 46.5985 23.106 46.8529 23.2935 47.0404C23.4811 47.228 23.7355 47.3333 24.0007 47.3333H36.6673C36.9325 47.3333 37.1869 47.228 37.3745 47.0404C37.562 46.8529 37.6673 46.5985 37.6673 46.3333C37.6673 46.0681 37.562 45.8137 37.3745 45.6262C37.1869 45.4386 36.9325 45.3333 36.6673 45.3333Z" fill="#00A26F"/>
</svg>
