<svg width="50" height="50" viewBox="0 0 50 50" fill="none" xmlns="http://www.w3.org/2000/svg">
<path d="M29.4375 20.0723C30.2348 20.0723 30.7892 20.2105 31.0674 20.4521C31.3456 20.6938 31.5176 21.1422 31.5176 21.7969V23.7275C31.5176 24.4173 31.3456 24.8658 31.0674 25.1074C30.7891 25.3489 30.2346 25.4521 29.4375 25.4521V25.4502H15.7881V20.0723H29.4375Z" fill="#EEFDF1"/>
<path fill-rule="evenodd" clip-rule="evenodd" d="M25 0C38.8071 0 50 11.1929 50 25C50 38.8071 38.8071 50 25 50C11.1929 50 0 38.8071 0 25C0 11.1929 11.1929 0 25 0ZM30.374 15.002H10V38H15.7881V30.5176H26.4561L31.5176 38H38L32.4189 30.4824C34.4764 30.1788 35.4002 29.5512 36.1621 28.5166C36.9241 27.482 37.3066 25.8278 37.3066 23.6201V21.8955C37.3066 20.5864 37.1677 19.5517 36.9248 18.7588C36.6819 17.9657 36.2664 17.2758 35.6768 16.6562C35.0539 16.0697 34.3599 15.6566 33.5273 15.3799C32.6949 15.1383 31.6548 15 30.374 15V15.002ZM40 10C38.3432 10 37 11.3431 37 13C37 14.6568 38.3432 16 40 16C41.6569 16 43 14.6568 43 13C43 11.3431 41.6569 10 40 10Z" fill="#EEFDF1"/>
</svg>
