<svg width="26" height="27" viewBox="0 0 26 27" fill="none" xmlns="http://www.w3.org/2000/svg">
<path opacity="0.3" d="M0 6.5829C0 2.99306 2.91005 0.0830078 6.49989 0.0830078H19.4996C23.0893 0.0830078 25.9995 2.99306 25.9995 6.5829V19.5826C25.9995 23.1723 23.0893 26.0825 19.4996 26.0825H6.49989C2.91005 26.0825 0 23.1723 0 19.5826V6.5829Z" fill="#FF5050"/>
<path fill-rule="evenodd" clip-rule="evenodd" d="M25.9949 18.2944V19.5843C25.9949 23.1741 23.0847 26.0842 19.495 26.0842H6.49521C3.31314 26.0842 0.665145 23.7975 0.104736 20.7777L0.58357 20.2988C0.62582 20.2566 0.671429 20.218 0.719962 20.1833L3.85275 17.9456C4.62841 17.3916 5.69095 17.4795 6.365 18.1536L8.17763 19.9661C8.68528 20.4739 9.5084 20.4739 10.016 19.9661L16.9375 13.0448C17.6506 12.3316 18.7899 12.28 19.5647 12.9256L25.8992 18.2044C25.9329 18.2324 25.9649 18.2626 25.9949 18.2944Z" fill="#FF5050"/>
<path d="M7.79971 10.4831C6.3638 10.4831 5.19977 9.31906 5.19977 7.88315C5.19977 6.44724 6.3638 5.2832 7.79971 5.2832C9.23562 5.2832 10.3997 6.44724 10.3997 7.88315C10.3997 9.31906 9.23562 10.4831 7.79971 10.4831Z" fill="#FF5050"/>
</svg>
