<svg width="243" height="39" viewBox="0 0 243 39" fill="none" xmlns="http://www.w3.org/2000/svg">
<g clip-path="url(#clip0_1_2250)">
<path d="M6.69601 10.2832C6.61282 10.2832 3.18552 10.4163 2.27046 12.6291C1.37204 14.7919 3.61809 17.3208 3.63473 17.3374C4.74943 18.552 4.74943 20.5318 3.63473 21.7464C3.61809 21.763 1.3554 24.2586 2.27046 26.4547C3.18552 28.6509 6.61282 28.8006 6.6461 28.8006H6.69601C7.54452 28.8006 8.79232 28.2849 9.37463 27.7025L16.7616 20.2656C17.1609 19.8663 17.1609 19.2008 16.7616 18.8015L9.37463 11.3646C8.79232 10.7823 7.54452 10.2665 6.67937 10.2665M6.69601 30.8637H6.57955C6.3799 30.8637 1.78797 30.6806 0.373795 27.2533C-1.04039 23.8427 2.00426 20.5152 2.13736 20.3655C2.53666 19.9329 2.53666 19.1842 2.13736 18.7516C2.00426 18.6185 -1.02375 15.2744 0.373795 11.8637C1.80461 8.41979 6.39653 8.25342 6.59618 8.25342H6.71265C8.11019 8.25342 9.89039 8.98546 10.8554 9.95043L18.2424 17.3874C19.4403 18.5852 19.4403 20.5485 18.2424 21.7464L10.8554 29.1833C9.89039 30.1482 8.11019 30.8803 6.71265 30.8803L6.69601 30.8637Z" fill="#00A26F"/>
<path d="M31.2378 10.2827C30.3394 10.2827 29.0916 10.7985 28.5093 11.3808L21.1223 18.8177C20.723 19.217 20.723 19.8825 21.1223 20.2818L28.5093 27.7187C29.0916 28.301 30.3394 28.8168 31.1879 28.8168H31.2378C31.2378 28.8168 34.6984 28.6837 35.6135 26.4709C36.5119 24.2914 34.2658 21.7792 34.2492 21.7625C33.1345 20.548 33.1345 18.5682 34.2492 17.3536C34.2658 17.337 36.5285 14.8414 35.6135 12.6452C34.6984 10.4325 31.2711 10.2994 31.2378 10.2994M31.1879 30.8632C29.7904 30.8632 28.0102 30.1312 27.0452 29.1662L19.6582 21.7293C18.4603 20.5314 18.4603 18.5848 19.6582 17.3703L27.0452 9.93334C28.0102 8.96837 29.7904 8.23633 31.1879 8.23633H31.3044C31.504 8.23633 36.0959 8.41934 37.5268 11.8466C38.9409 15.2573 35.8963 18.5848 35.7632 18.7345C35.3639 19.1671 35.3639 19.9158 35.7632 20.3484C35.8963 20.4815 38.9243 23.8256 37.5101 27.2362C36.0793 30.6802 31.4874 30.8466 31.2877 30.8466H31.1713L31.1879 30.8632Z" fill="#00A26F"/>
<path d="M18.9424 34.0247C19.7743 34.0247 20.5562 34.3242 21.1386 34.8732C21.1386 34.8732 22.8855 36.4538 24.7489 36.4538C25.1315 36.4538 25.5142 36.3872 25.8636 36.2375C28.0764 35.3224 28.2095 31.8951 28.2095 31.8618C28.2427 31.03 27.7103 29.7156 27.1114 29.1333L19.6745 21.7463C19.2918 21.3636 18.593 21.3636 18.2104 21.7463L10.7735 29.1333C10.1745 29.7323 9.65875 31.03 9.67538 31.8785C9.67538 31.9118 9.80848 35.3391 12.0213 36.2541C12.3706 36.4039 12.7367 36.4704 13.1193 36.4704C14.9661 36.4704 16.713 34.9065 16.7296 34.8899C17.312 34.3408 18.0939 34.0413 18.9258 34.0413M24.7489 38.5002C22.0869 38.5002 19.8408 36.4538 19.7577 36.3706C19.3417 35.9879 18.5598 35.9879 18.1438 36.3706C18.044 36.4538 15.8146 38.5002 13.1526 38.5002C12.4871 38.5002 11.8549 38.3671 11.2559 38.1341C7.812 36.7033 7.64562 32.1114 7.64562 31.9284C7.61235 30.5142 8.34439 28.6841 9.34264 27.6692L16.7796 20.2822C17.3619 19.6999 18.1272 19.3838 18.9591 19.3838C19.7909 19.3838 20.5562 19.6999 21.1386 20.2822L28.5755 27.6692C29.5904 28.6675 30.3058 30.4976 30.2725 31.9284C30.2725 32.128 30.0895 36.72 26.6622 38.1341C26.0632 38.3837 25.431 38.5002 24.7655 38.5002H24.7489Z" fill="#00A26F"/>
<path d="M13.3511 2.76269C12.9684 2.76269 12.619 2.82924 12.2863 2.96234C10.1567 3.84412 10.0069 7.22151 9.9903 7.25479C9.97367 8.07002 10.4728 9.33446 11.0551 9.91677L18.492 17.3038C18.8414 17.6532 19.457 17.6532 19.8064 17.3038L27.2433 9.91677C27.8256 9.33446 28.3247 8.07002 28.3081 7.25479C28.3081 7.22151 28.175 3.86076 26.0121 2.96234C25.6794 2.82924 25.3134 2.76269 24.9473 2.76269C23.1339 2.76269 21.4202 4.30997 21.4036 4.3266C20.8046 4.89228 19.9894 5.19175 19.1409 5.19175C18.2924 5.19175 17.4771 4.87564 16.8616 4.30997C16.8616 4.30997 15.1479 2.76269 13.3344 2.76269M19.1575 19.8327C18.309 19.8327 17.5104 19.4999 16.9115 18.901L9.47455 11.514C8.44303 10.4991 7.71098 8.63569 7.74425 7.18824C7.74425 6.98859 7.92727 2.33011 11.4211 0.88266C12.0367 0.633099 12.6856 0.5 13.3511 0.5C16.0463 0.5 18.3256 2.56304 18.4088 2.64623C18.7915 2.99561 19.5069 2.99561 19.8896 2.64623C19.9894 2.56304 22.2521 0.5 24.9473 0.5C25.6128 0.5 26.2617 0.633099 26.8773 0.88266C30.3878 2.33011 30.5541 6.98859 30.5541 7.18824C30.5874 8.63569 29.8554 10.4991 28.8239 11.514L21.3869 18.901C20.788 19.4999 19.9894 19.8327 19.1409 19.8327H19.1575Z" fill="#E2000F"/>
<path d="M236.012 9.965V17.09L241.316 10.44V9.965H242.906V16.8683C242.906 17.5333 242.906 18.135 242.906 18.6417C242.906 19.1483 242.938 19.56 243 19.8133H241.316V12.72L236.012 19.3383V19.8133H234.422V12.91C234.422 12.245 234.422 11.6433 234.422 11.1367C234.422 10.63 234.39 10.2183 234.328 9.965H236.012ZM224.346 9.965V17.09L229.649 10.44V9.965H231.24V16.8683C231.24 17.5333 231.24 18.135 231.24 18.6417C231.24 19.1483 231.271 19.56 231.333 19.8133H229.649V12.72L224.346 19.3383V19.8133H222.755V12.91C222.755 12.245 222.755 11.6433 222.755 11.1367C222.755 10.63 222.724 10.2183 222.661 9.965H224.346ZM211.494 15.1583C211.494 14.5567 211.494 13.9867 211.494 13.48C211.494 12.9733 211.463 12.4983 211.432 12.055C211.4 11.6117 211.338 11.2317 211.276 10.8833C211.213 10.535 211.12 10.2183 211.026 9.965H212.742C212.804 10.1233 212.866 10.3767 212.96 10.6617C213.022 10.9783 213.085 11.3267 213.116 11.77C213.334 11.485 213.584 11.2 213.833 10.9467C214.083 10.6933 214.364 10.4717 214.676 10.3133C214.988 10.1233 215.3 9.99666 215.612 9.90166C215.955 9.80666 216.267 9.74333 216.641 9.74333C217.171 9.74333 217.67 9.87 218.138 10.0917C218.575 10.345 218.98 10.6617 219.292 11.105C219.604 11.5483 219.854 12.055 220.01 12.6567C220.197 13.2583 220.259 13.9233 220.259 14.62C220.259 15.4433 220.135 16.2033 219.916 16.8683C219.698 17.5333 219.386 18.1033 218.98 18.5783C218.575 19.0533 218.138 19.4017 217.608 19.655C217.078 19.9083 216.516 20.035 215.923 20.035C215.674 20.035 215.424 20.035 215.206 19.9717C214.988 19.9083 214.769 19.845 214.551 19.75C214.333 19.655 214.114 19.56 213.927 19.4017C213.709 19.275 213.49 19.1167 213.272 18.9583V21.2383C213.272 21.6183 213.272 21.9667 213.272 22.2833C213.272 22.6 213.272 22.885 213.303 23.1383C213.303 23.3917 213.334 23.645 213.366 23.8667C213.397 24.0883 213.428 24.31 213.459 24.5H211.463V15.0633L211.494 15.1583ZM213.241 17.3117C213.553 17.5333 213.833 17.7233 214.083 17.8817C214.333 18.04 214.551 18.1667 214.738 18.23C214.925 18.325 215.112 18.3883 215.3 18.42C215.487 18.4517 215.674 18.4833 215.923 18.4833C216.267 18.4833 216.579 18.42 216.89 18.23C217.202 18.0717 217.483 17.8183 217.702 17.5333C217.951 17.2167 218.138 16.8683 218.263 16.425C218.419 15.9817 218.481 15.5067 218.481 14.9367C218.481 14.3667 218.419 13.9233 218.325 13.48C218.232 13.0367 218.076 12.6883 217.889 12.3717C217.702 12.055 217.452 11.8333 217.202 11.675C216.922 11.5167 216.641 11.4217 216.267 11.4217C215.986 11.4217 215.705 11.485 215.424 11.6117C215.144 11.7383 214.863 11.8967 214.582 12.15C214.301 12.4033 214.052 12.6883 213.833 13.0367C213.584 13.385 213.397 13.7967 213.21 14.2717V17.3117H213.241ZM200.014 14.9683C200.014 14.145 200.139 13.385 200.389 12.7517C200.638 12.1183 200.981 11.58 201.387 11.1367C201.793 10.6933 202.292 10.345 202.853 10.1233C203.415 9.90166 204.007 9.775 204.631 9.775C205.255 9.775 205.879 9.90166 206.44 10.1233C206.971 10.345 207.439 10.6933 207.844 11.1367C208.25 11.58 208.53 12.1183 208.749 12.7517C208.967 13.385 209.061 14.1133 209.061 14.9683C209.061 15.8233 208.936 16.5517 208.686 17.185C208.437 17.8183 208.094 18.3567 207.688 18.8C207.283 19.2433 206.784 19.56 206.222 19.7817C205.661 20.0033 205.068 20.13 204.444 20.13C203.82 20.13 203.196 20.0033 202.635 19.7817C202.104 19.56 201.637 19.2433 201.231 18.8C200.826 18.3567 200.545 17.8183 200.326 17.185C200.108 16.5517 200.014 15.8233 200.014 14.9683ZM201.793 14.9683C201.793 15.5383 201.855 16.045 201.98 16.4883C202.104 16.9317 202.292 17.3117 202.541 17.6283C202.791 17.945 203.071 18.1667 203.415 18.325C203.758 18.4833 204.132 18.5783 204.538 18.5783C204.912 18.5783 205.286 18.4833 205.629 18.325C205.973 18.1667 206.253 17.945 206.503 17.6283C206.752 17.3117 206.94 16.9633 207.096 16.4883C207.251 16.045 207.314 15.5383 207.314 14.9683C207.314 14.3983 207.251 13.8917 207.127 13.4483C207.002 13.005 206.815 12.625 206.565 12.3083C206.316 11.9917 206.035 11.77 205.692 11.58C205.349 11.4217 204.974 11.3267 204.569 11.3267C204.163 11.3267 203.82 11.4217 203.477 11.58C203.134 11.7383 202.853 11.9917 202.604 12.3083C202.354 12.625 202.167 13.005 202.011 13.4483C201.855 13.8917 201.793 14.3983 201.793 14.9683ZM198.517 11.39H194.93V19.845H193.183V11.39H189.596V9.99667H198.517V11.39ZM187.63 12.34C187.194 12.0233 186.757 11.77 186.351 11.6117C185.915 11.4533 185.478 11.3583 184.979 11.3583C184.542 11.3583 184.168 11.4533 183.793 11.6117C183.419 11.77 183.107 12.0233 182.826 12.3083C182.546 12.625 182.359 13.005 182.203 13.4483C182.047 13.8917 181.984 14.3983 181.984 14.9683C181.984 15.475 182.047 15.95 182.203 16.3933C182.359 16.805 182.546 17.185 182.795 17.5017C183.045 17.8183 183.357 18.04 183.731 18.1983C184.105 18.3567 184.511 18.4517 184.979 18.4517C185.572 18.4517 186.071 18.3567 186.539 18.1667C187.006 17.9767 187.443 17.6917 187.88 17.3117L188.067 19.0217C187.818 19.2117 187.599 19.37 187.35 19.4967C187.1 19.6233 186.851 19.75 186.601 19.8133C186.351 19.9083 186.071 19.9717 185.759 20.0033C185.447 20.035 185.135 20.0667 184.792 20.0667C184.137 20.0667 183.544 19.94 182.982 19.7183C182.421 19.4967 181.922 19.1483 181.516 18.7367C181.111 18.2933 180.768 17.7867 180.518 17.1533C180.269 16.5517 180.144 15.855 180.144 15.0633C180.144 14.335 180.269 13.6383 180.487 13.005C180.736 12.3717 181.048 11.8017 181.485 11.3267C181.922 10.8517 182.421 10.4717 183.045 10.1867C183.669 9.90167 184.355 9.775 185.104 9.775C185.728 9.775 186.289 9.83833 186.757 9.99667C187.225 10.155 187.63 10.345 187.974 10.5983L187.63 12.34ZM170.786 9.965V17.09L176.089 10.44V9.965H177.679V16.8683C177.679 17.5333 177.679 18.135 177.679 18.6417C177.679 19.1483 177.711 19.56 177.773 19.8133H176.089V12.72L170.786 19.3383V19.8133H169.195V12.91C169.195 12.245 169.195 11.6433 169.195 11.1367C169.195 10.63 169.163 10.2183 169.101 9.965H170.786ZM159.649 13.7967C159.649 13.385 159.587 13.005 159.462 12.6883C159.337 12.3717 159.181 12.0867 158.963 11.865C158.745 11.6433 158.495 11.485 158.214 11.3583C157.934 11.2633 157.59 11.2 157.247 11.2C156.561 11.2 155.968 11.4217 155.532 11.8333C155.095 12.245 154.783 12.91 154.658 13.7967H159.618H159.649ZM154.565 15.1583C154.565 15.7283 154.658 16.2033 154.814 16.6467C154.97 17.0583 155.188 17.4067 155.469 17.6917C155.75 17.9767 156.062 18.1667 156.436 18.2933C156.811 18.42 157.216 18.4833 157.622 18.4833C158.245 18.4833 158.838 18.42 159.431 18.2617C160.024 18.135 160.616 17.8817 161.209 17.5017L161.396 19.085C161.053 19.275 160.741 19.4017 160.398 19.5283C160.086 19.655 159.743 19.75 159.431 19.845C159.119 19.9083 158.776 19.9717 158.433 20.0033C158.09 20.035 157.746 20.0667 157.372 20.0667C156.748 20.0667 156.187 19.9717 155.625 19.75C155.064 19.5283 154.596 19.2117 154.159 18.8C153.754 18.3883 153.41 17.85 153.161 17.2167C152.911 16.5833 152.787 15.855 152.787 15.0317C152.787 14.2083 152.88 13.5117 153.098 12.8467C153.317 12.2133 153.629 11.6433 154.003 11.1683C154.409 10.6933 154.877 10.345 155.438 10.0917C156 9.83833 156.655 9.71167 157.341 9.71167C157.871 9.71167 158.339 9.775 158.713 9.90166C159.119 10.0283 159.462 10.1867 159.743 10.4083C160.024 10.63 160.273 10.8833 160.491 11.2C160.679 11.485 160.835 11.8333 160.959 12.15C161.084 12.4983 161.147 12.8467 161.209 13.2267C161.271 13.6067 161.271 13.955 161.271 14.335V15.095H154.471L154.565 15.1583ZM140.434 18.5783C140.59 18.5783 140.777 18.5783 140.964 18.5783C141.151 18.5783 141.369 18.5783 141.557 18.5783C141.775 18.5783 141.962 18.5783 142.181 18.5783H142.773C143.491 18.5783 144.052 18.42 144.458 18.0717C144.863 17.7233 145.05 17.2483 145.05 16.5833C145.05 16.2667 144.988 15.9817 144.863 15.76C144.738 15.5383 144.582 15.38 144.364 15.2217C144.146 15.095 143.896 15 143.615 14.9367C143.335 14.8733 143.023 14.8417 142.711 14.8417H140.434V18.4833V18.5783ZM150.229 15.2533C150.229 15.57 150.229 15.9183 150.229 16.3617C150.229 16.7733 150.229 17.2167 150.26 17.6283C150.26 18.0717 150.291 18.4833 150.322 18.8633C150.322 19.2433 150.385 19.5917 150.416 19.845H148.482V14.715C148.482 14.24 148.482 13.765 148.482 13.3217C148.482 12.8783 148.482 12.435 148.482 12.0233C148.482 11.6117 148.482 11.2317 148.451 10.8833C148.451 10.535 148.419 10.2183 148.388 9.965H150.291V15.2533H150.229ZM142.711 13.6067C143.397 13.6067 143.99 13.67 144.489 13.8283C144.988 13.9867 145.425 14.1767 145.737 14.43C146.08 14.6833 146.329 15 146.485 15.3483C146.641 15.6967 146.735 16.0767 146.735 16.52C146.735 17.0583 146.672 17.5333 146.485 17.9767C146.329 18.3883 146.08 18.7683 145.768 19.0533C145.456 19.3383 145.05 19.5917 144.551 19.7183C144.052 19.8767 143.491 19.94 142.836 19.94C142.492 19.94 142.118 19.94 141.744 19.94C141.338 19.94 140.964 19.94 140.558 19.94C140.184 19.94 139.81 19.94 139.435 19.94C139.061 19.94 138.78 19.94 138.5 19.9083C138.5 19.7817 138.531 19.5917 138.562 19.4017C138.562 19.18 138.562 18.9583 138.593 18.6733C138.593 18.3883 138.593 18.1033 138.593 17.7867C138.593 17.47 138.593 17.1533 138.593 16.805V13.1317C138.593 12.815 138.593 12.4983 138.593 12.1817C138.593 11.865 138.593 11.58 138.593 11.295C138.593 11.01 138.593 10.7883 138.562 10.5667C138.562 10.345 138.531 10.1867 138.5 10.0283H140.402V13.67H142.68L142.711 13.6067ZM129.89 14.145H131.98C132.354 14.145 132.697 14.1133 132.978 14.0183C133.259 13.9233 133.509 13.8283 133.696 13.67C133.883 13.5117 134.008 13.3533 134.101 13.1633C134.195 12.9733 134.226 12.7517 134.226 12.53C134.226 12.055 134.039 11.7067 133.696 11.485C133.321 11.2633 132.76 11.1367 131.949 11.1367C131.824 11.1367 131.668 11.1367 131.45 11.1367C131.263 11.1367 131.044 11.1367 130.826 11.1367C130.607 11.1367 130.42 11.1367 130.264 11.1367C130.077 11.1367 129.952 11.1367 129.89 11.1367V14.1133V14.145ZM136.222 16.9317C136.222 17.375 136.16 17.755 136.004 18.135C135.848 18.515 135.599 18.8317 135.287 19.085C134.943 19.37 134.507 19.56 133.976 19.7183C133.446 19.8767 132.791 19.94 132.042 19.94C131.699 19.94 131.325 19.94 130.919 19.94C130.514 19.94 130.108 19.94 129.734 19.9083C129.36 19.9083 129.017 19.9083 128.705 19.8767C128.393 19.8767 128.143 19.8767 127.987 19.8133C127.987 19.6867 128.018 19.4967 128.05 19.3067C128.05 19.085 128.05 18.8633 128.081 18.5783C128.081 18.2933 128.081 18.0083 128.081 17.6917C128.081 17.375 128.081 17.0583 128.081 16.71V13.0367C128.081 12.72 128.081 12.3717 128.081 12.055C128.081 11.7383 128.081 11.4217 128.081 11.1367C128.081 10.8517 128.081 10.5983 128.05 10.3767C128.05 10.155 128.018 9.965 127.987 9.83833C128.143 9.83833 128.361 9.83833 128.705 9.83833C129.048 9.83833 129.391 9.83833 129.796 9.80666C130.202 9.80666 130.607 9.80666 131.013 9.80666C131.419 9.80666 131.762 9.80666 132.042 9.80666C133.353 9.80666 134.32 10.0283 134.975 10.44C135.63 10.8517 135.942 11.5167 135.942 12.4033C135.942 12.6883 135.879 12.9417 135.786 13.195C135.692 13.4167 135.536 13.6383 135.349 13.8283C135.162 14.0183 134.975 14.1767 134.756 14.3033C134.538 14.43 134.32 14.5567 134.101 14.6517C134.351 14.715 134.6 14.81 134.85 14.9367C135.099 15.0317 135.349 15.19 135.536 15.38C135.755 15.57 135.91 15.7917 136.035 16.045C136.16 16.2983 136.222 16.615 136.222 16.995V16.9317ZM129.89 18.5783C129.89 18.5783 130.077 18.5783 130.233 18.5783C130.389 18.5783 130.576 18.5783 130.795 18.5783C130.982 18.5783 131.2 18.5783 131.45 18.5783C131.668 18.5783 131.886 18.5783 132.074 18.5783C132.417 18.5783 132.76 18.5783 133.072 18.515C133.384 18.4517 133.633 18.3883 133.852 18.2617C134.07 18.135 134.257 17.9767 134.382 17.755C134.507 17.565 134.569 17.3117 134.569 16.995C134.569 16.4883 134.382 16.0767 134.008 15.7917C133.633 15.5067 133.072 15.38 132.323 15.38H129.952V18.515L129.89 18.5783ZM118.13 9.965V17.09L123.433 10.44V9.965H125.024V16.8683C125.024 17.5333 125.024 18.135 125.024 18.6417C125.024 19.1483 125.055 19.56 125.117 19.8133H123.433V12.72L118.13 19.3383V19.8133H116.539V12.91C116.539 12.245 116.539 11.6433 116.539 11.1367C116.539 10.63 116.508 10.2183 116.445 9.965H118.13ZM109.021 11.39C108.959 12.15 108.865 12.8467 108.772 13.4483C108.678 14.0817 108.584 14.6517 108.46 15.1583C108.335 15.665 108.21 16.14 108.054 16.5517C107.898 16.9633 107.742 17.3433 107.586 17.6917C107.181 18.4833 106.713 19.0533 106.151 19.4017C105.59 19.75 104.966 19.94 104.248 19.94V18.1983C104.436 18.1983 104.623 18.1983 104.81 18.135C104.997 18.1033 105.184 18.0083 105.34 17.9133C105.527 17.8183 105.683 17.6917 105.839 17.5017C105.995 17.3433 106.12 17.1217 106.276 16.8683C106.432 16.5833 106.557 16.2667 106.682 15.8867C106.806 15.5383 106.9 15.0633 106.994 14.5567C107.087 14.0183 107.181 13.385 107.243 12.6567C107.305 11.9283 107.399 11.01 107.461 9.965H113.607C113.544 10.25 113.544 10.63 113.513 11.1367C113.513 11.6433 113.513 12.2133 113.513 12.8783V16.9317C113.513 17.6917 113.513 18.2933 113.513 18.7683C113.513 19.2433 113.544 19.5917 113.607 19.845H111.766V11.39H109.052H109.021ZM103.125 11.39H99.5381V19.845H97.7912V11.39H94.2039V9.99667H103.125V11.39ZM92.2387 12.34C91.8019 12.0233 91.3652 11.77 90.9597 11.6117C90.523 11.4533 90.0863 11.3583 89.5872 11.3583C89.1504 11.3583 88.7761 11.4533 88.4018 11.6117C88.0275 11.77 87.7155 12.0233 87.4348 12.3083C87.154 12.625 86.9669 13.005 86.8109 13.4483C86.6549 13.8917 86.5925 14.3983 86.5925 14.9683C86.5925 15.475 86.6549 15.95 86.8109 16.3933C86.9357 16.805 87.154 17.185 87.4036 17.5017C87.6531 17.8183 87.9651 18.04 88.3394 18.1983C88.7137 18.3567 89.1193 18.4517 89.5872 18.4517C90.1799 18.4517 90.679 18.3567 91.1469 18.1667C91.6148 17.9767 92.0515 17.6917 92.4882 17.3117L92.6754 19.0217C92.4258 19.2117 92.2075 19.37 91.9579 19.4967C91.7084 19.6233 91.4588 19.75 91.2093 19.8133C90.9597 19.9083 90.679 19.9717 90.367 20.0033C90.0551 20.035 89.7431 20.0667 89.4 20.0667C88.7449 20.0667 88.1522 19.94 87.5907 19.7183C87.0292 19.4967 86.5301 19.1483 86.1246 18.7367C85.7191 18.2933 85.376 17.7867 85.1264 17.1533C84.8768 16.5517 84.7521 15.855 84.7521 15.0633C84.7521 14.335 84.8768 13.6383 85.0952 13.005C85.3136 12.3717 85.6567 11.8017 86.0934 11.3267C86.5301 10.8517 87.0292 10.4717 87.6531 10.1867C88.277 9.90167 88.9633 9.775 89.7119 9.775C90.3358 9.775 90.8973 9.83833 91.3652 9.99667C91.8331 10.155 92.2387 10.345 92.5818 10.5983L92.2387 12.34ZM81.0712 15.285C80.8528 15.8233 80.6344 16.3933 80.3537 16.9633C80.0729 17.5333 79.761 18.04 79.3867 18.515C79.0123 18.99 78.638 19.37 78.2013 19.655C77.7646 19.94 77.2967 20.0983 76.7976 20.0983C76.392 20.0983 76.0177 20.0033 75.6746 19.8133C75.3314 19.6233 75.0195 19.37 74.7699 19.0217C74.5204 18.6733 74.302 18.23 74.1773 17.6917C74.0213 17.1533 73.9589 16.5517 73.9589 15.8867C73.9589 15.1267 74.0525 14.3667 74.2708 13.6383C74.458 12.91 74.7699 12.245 75.2067 11.675C75.6122 11.105 76.1737 10.63 76.7976 10.3133C77.4526 9.965 78.2013 9.80666 79.1059 9.80666C79.7298 9.80666 80.3225 9.83833 80.9464 9.93333C81.5703 10.0283 82.1006 10.1233 82.5997 10.25V14.7467C82.5997 15.95 82.6621 16.995 82.7868 17.8183C82.9116 18.6417 83.0364 19.3383 83.2236 19.8767H81.5703C81.5703 19.8767 81.4455 19.4967 81.3831 19.18C81.3207 18.8633 81.2895 18.5467 81.2583 18.1667C81.2271 17.8183 81.1959 17.47 81.1647 17.1217C81.1647 16.7733 81.1647 16.4883 81.1647 16.2983V15.3167L81.0712 15.285ZM78.9188 11.3267C78.2949 11.3267 77.7646 11.4533 77.3591 11.7067C76.9535 11.96 76.6104 12.3083 76.3608 12.72C76.1113 13.1317 75.9241 13.6383 75.8305 14.1767C75.737 14.715 75.6746 15.285 75.6746 15.855C75.6746 16.235 75.7058 16.5833 75.7994 16.9C75.8617 17.2167 75.9865 17.47 76.1113 17.7233C76.2361 17.945 76.392 18.135 76.548 18.2617C76.704 18.3883 76.8911 18.4517 77.0783 18.4517C77.2967 18.4517 77.515 18.3883 77.7334 18.23C77.9517 18.1033 78.1701 17.8817 78.3885 17.66C78.6068 17.4067 78.8252 17.1533 79.0123 16.8367C79.1995 16.52 79.4179 16.1717 79.5738 15.8233C79.761 15.475 79.917 15.1267 80.073 14.7467C80.2289 14.3983 80.3537 14.05 80.4473 13.7017C80.5721 13.385 80.6344 13.0683 80.6968 12.815C80.7592 12.53 80.7904 12.3083 80.7904 12.15V11.5167C80.6344 11.485 80.3849 11.4533 80.1041 11.39C79.7922 11.3267 79.4179 11.3267 78.9188 11.3267ZM71.3698 9.965C71.3074 10.25 71.2762 10.63 71.2762 11.1367C71.2762 11.6433 71.2762 12.2133 71.2762 12.8783V16.9317C71.2762 17.5967 71.2762 18.1667 71.2762 18.6733C71.2762 19.18 71.3074 19.56 71.3698 19.8133H69.5293V15.4117C69.5293 15.4117 69.2486 15.57 69.0926 15.6333C68.9366 15.6967 68.7495 15.76 68.5623 15.8233C68.3751 15.8867 68.1568 15.9183 67.9072 15.95C67.6577 15.9817 67.4081 16.0133 67.0962 16.0133C66.6907 16.0133 66.2851 15.95 65.9108 15.8233C65.5053 15.6967 65.1621 15.5383 64.8502 15.3167C64.5383 15.095 64.2887 14.81 64.1015 14.4617C63.9144 14.1133 63.8208 13.7017 63.8208 13.2583V12.245C63.8208 11.8967 63.8208 11.58 63.8208 11.295C63.8208 11.01 63.8208 10.725 63.8208 10.5033C63.8208 10.2817 63.8208 10.0917 63.7584 9.93333H65.5989V12.9417C65.5989 13.48 65.7548 13.8917 66.0668 14.1767C66.3787 14.4617 66.8154 14.5883 67.3769 14.5883C67.9384 14.5883 68.3751 14.525 68.7183 14.43C69.0614 14.335 69.3422 14.2083 69.5605 14.05V9.93333H71.401L71.3698 9.965ZM61.8556 18.4833C61.5748 18.7367 61.2317 18.99 60.8574 19.18C60.483 19.37 60.0775 19.5283 59.672 19.6867C59.2664 19.8133 58.8609 19.94 58.4242 20.0033C58.0187 20.0667 57.6132 20.0983 57.2388 20.0983C56.2718 20.0983 55.3984 19.94 54.6497 19.5917C53.8699 19.275 53.2148 18.8 52.6845 18.1667C52.1542 17.5333 51.7175 16.805 51.4367 15.9183C51.156 15.0317 51 14.05 51 12.9733C51 11.7383 51.1872 10.63 51.5303 9.71167C51.8734 8.76167 52.3725 8.00167 52.9652 7.36833C53.5579 6.735 54.2442 6.26 55.024 5.975C55.8039 5.65833 56.6149 5.5 57.4572 5.5C57.8003 5.5 58.1435 5.5 58.5178 5.56333C58.8609 5.595 59.2353 5.69 59.5784 5.785C59.9215 5.88 60.2959 6.03833 60.639 6.19666C60.9821 6.38666 61.3565 6.57667 61.6996 6.83L61.1381 8.57166C60.8262 8.28666 60.5454 8.065 60.2335 7.875C59.9215 7.685 59.6096 7.52666 59.2976 7.43166C58.9857 7.305 58.6738 7.24166 58.3618 7.17833C58.0499 7.115 57.7691 7.115 57.4572 7.115C56.8021 7.115 56.1782 7.24166 55.6167 7.46333C55.0552 7.685 54.5873 8.065 54.1818 8.50833C53.7763 8.98333 53.4643 9.55333 53.246 10.25C53.0276 10.9467 52.9028 11.77 52.9028 12.6883C52.9028 13.5433 53.0276 14.335 53.246 15.0317C53.4643 15.7283 53.7763 16.33 54.1818 16.805C54.5873 17.28 55.0552 17.66 55.5855 17.945C56.147 18.1983 56.7397 18.325 57.3636 18.325C57.7379 18.325 58.0811 18.2933 58.4554 18.1983C58.8297 18.1033 59.2041 17.9767 59.5472 17.8183C59.8903 17.66 60.2335 17.47 60.5766 17.2483C60.8885 17.0267 61.2005 16.7733 61.45 16.52L61.8244 18.42L61.8556 18.4833Z" fill="#0F0E09"/>
<path d="M203.497 26.8045H202.244C202.15 27.5208 202.025 28.237 201.805 28.9844C201.586 29.7007 201.304 30.4169 200.929 31.1332H203.497V26.8045ZM200.271 31.7561C200.271 31.7561 200.208 32.0052 200.208 32.1609C200.208 32.3166 200.177 32.4723 200.177 32.628C200.177 32.7837 200.177 32.9394 200.177 33.0952C200.177 33.2509 200.177 33.3754 200.177 33.5H199.551V31.1021H200.177C200.615 30.3235 200.929 29.545 201.179 28.7042C201.43 27.8633 201.555 27.0225 201.618 26.1505H204.342C204.342 26.1505 204.311 26.5242 204.28 26.8045C204.28 27.0848 204.28 27.4273 204.28 27.801V31.1021H205V33.5H204.374C204.374 33.5 204.374 33.2509 204.374 33.0952C204.374 32.9394 204.374 32.7837 204.374 32.628C204.374 32.4723 204.374 32.3166 204.342 32.1609C204.342 32.0052 204.311 31.8806 204.28 31.7561H200.396H200.271ZM197.671 31.7561V29.1713H194.853V31.7561H194.07C194.07 31.7561 194.101 31.3824 194.132 31.1021C194.132 30.8218 194.132 30.4792 194.132 30.1055V27.8633C194.132 27.4896 194.132 27.1471 194.132 26.8668C194.132 26.5865 194.132 26.3685 194.07 26.2128H194.853V28.6107H197.671V26.2128H198.454C198.454 26.2128 198.423 26.5865 198.392 26.8668C198.392 27.1471 198.392 27.4896 198.392 27.8633V30.1055C198.392 30.4792 198.392 30.8218 198.392 31.1021C198.392 31.3824 198.392 31.6003 198.454 31.7561H197.671ZM192.253 29.0156C192.253 28.673 192.222 28.3305 192.128 28.0502C192.034 27.7699 191.94 27.5208 191.784 27.3339C191.627 27.1471 191.47 26.9914 191.251 26.8979C191.063 26.8045 190.813 26.7422 190.593 26.7422C190.374 26.7422 190.124 26.8045 189.936 26.8979C189.748 26.9914 189.56 27.1471 189.403 27.3339C189.247 27.5208 189.153 27.7388 189.059 28.019C188.965 28.2993 188.934 28.5796 188.934 28.9221C188.934 29.2647 188.965 29.5761 189.059 29.8564C189.153 30.1367 189.247 30.3858 189.403 30.5727C189.56 30.7595 189.716 30.9152 189.936 31.0398C190.124 31.1332 190.374 31.1955 190.625 31.1955C190.875 31.1955 191.094 31.1332 191.282 31.0398C191.47 30.9464 191.658 30.7907 191.815 30.6038C191.971 30.417 192.065 30.199 192.159 29.9187C192.253 29.6384 192.285 29.3581 192.285 29.0156H192.253ZM193.005 28.9221C193.005 29.3893 192.942 29.7941 192.786 30.1367C192.66 30.5104 192.473 30.7907 192.253 31.0709C192.034 31.3201 191.784 31.5069 191.47 31.6315C191.188 31.756 190.875 31.8183 190.562 31.8183C190.249 31.8183 189.967 31.756 189.685 31.6315C189.403 31.5069 189.153 31.3201 188.934 31.0709C188.714 30.8218 188.526 30.5415 188.401 30.1678C188.276 29.8253 188.213 29.4204 188.213 28.9533C188.213 28.6419 188.244 28.3616 188.307 28.1125C188.37 27.8633 188.464 27.6142 188.558 27.3962C188.683 27.1782 188.808 26.9913 188.965 26.8045C189.121 26.6488 189.278 26.4931 189.466 26.3685C189.654 26.2439 189.842 26.1817 190.03 26.1194C190.218 26.0571 190.437 26.026 190.656 26.026C190.969 26.026 191.251 26.0882 191.533 26.2128C191.815 26.3374 192.065 26.5242 192.285 26.7734C192.504 27.0225 192.66 27.3028 192.817 27.6765C192.942 28.019 193.005 28.4239 193.005 28.891V28.9221ZM185.207 30.2924C185.426 30.2924 185.645 30.199 185.802 30.1367C185.99 30.0432 186.146 29.9498 186.271 29.7941C186.397 29.6695 186.491 29.5138 186.585 29.327C186.647 29.1401 186.679 28.9533 186.679 28.7353C186.679 28.5173 186.647 28.2993 186.585 28.1125C186.522 27.9256 186.428 27.7699 186.303 27.6142C186.177 27.4896 186.021 27.3651 185.833 27.2716C185.645 27.1782 185.457 27.1159 185.207 27.0848V30.2924ZM184.518 27.0848C184.298 27.0848 184.079 27.1782 183.891 27.2716C183.703 27.3651 183.547 27.4585 183.421 27.6142C183.296 27.7388 183.171 27.8945 183.108 28.0813C183.046 28.2682 183.014 28.455 183.014 28.673C183.014 28.891 183.046 29.109 183.108 29.2958C183.171 29.4827 183.296 29.6384 183.421 29.7941C183.547 29.9498 183.703 30.0432 183.891 30.1367C184.079 30.2301 184.298 30.2924 184.518 30.3235V27.1159V27.0848ZM185.238 25.7768C185.238 25.7768 185.238 26.026 185.238 26.1505C185.238 26.2751 185.238 26.3685 185.238 26.4308C185.582 26.4308 185.864 26.5242 186.146 26.6488C186.428 26.7734 186.647 26.9291 186.835 27.1159C187.023 27.3028 187.18 27.5208 187.274 27.801C187.368 28.0502 187.43 28.3616 187.43 28.673C187.43 28.9844 187.368 29.2958 187.274 29.545C187.18 29.7941 187.023 30.0433 186.835 30.2301C186.647 30.417 186.428 30.5727 186.146 30.6972C185.864 30.8218 185.582 30.8841 185.269 30.9152V31.0709C185.269 31.0709 185.269 31.2266 185.269 31.3201C185.269 31.4135 185.269 31.4758 185.269 31.5692C185.269 31.6626 185.269 31.7249 185.269 31.8183H184.549C184.549 31.8183 184.549 31.6626 184.549 31.6003C184.549 31.5069 184.549 31.4446 184.549 31.3512C184.549 31.2578 184.549 31.1955 184.549 31.1021V30.9152C184.204 30.9152 183.891 30.8218 183.641 30.6972C183.359 30.5727 183.14 30.4481 182.952 30.2612C182.764 30.0744 182.607 29.8564 182.513 29.5761C182.419 29.327 182.357 29.0156 182.357 28.7042C182.357 28.3927 182.419 28.0813 182.513 27.8322C182.607 27.583 182.764 27.3339 182.983 27.1471C183.171 26.9602 183.421 26.8045 183.703 26.6799C183.985 26.5554 184.267 26.4931 184.612 26.4619C184.612 26.3997 184.612 26.3062 184.612 26.1817C184.612 26.0571 184.612 25.9325 184.612 25.808H185.332L185.238 25.7768ZM178.316 24.5C178.316 24.6869 178.285 24.8426 178.191 25.0294C178.129 25.1851 178.003 25.3097 177.878 25.4343C177.753 25.5588 177.596 25.6523 177.408 25.7145C177.22 25.7768 177.032 25.808 176.844 25.808C176.657 25.808 176.437 25.7768 176.249 25.7145C176.062 25.6523 175.905 25.5588 175.78 25.4343C175.654 25.3097 175.529 25.1851 175.466 25.0294C175.404 24.8737 175.341 24.6869 175.341 24.5H176.062C176.062 24.5 176.062 24.718 176.124 24.8114C176.155 24.9048 176.218 24.9983 176.281 25.0606C176.343 25.1228 176.437 25.1851 176.531 25.2163C176.625 25.2474 176.719 25.2785 176.844 25.2785C176.97 25.2785 177.064 25.2786 177.158 25.2163C177.252 25.1851 177.346 25.1228 177.408 25.0606C177.471 24.9983 177.534 24.9048 177.565 24.8114C177.596 24.718 177.627 24.6246 177.627 24.5H178.348H178.316ZM175.373 30.4792L178.348 26.3685V26.1817H179.068C179.068 26.1817 179.037 26.5554 179.005 26.8356C179.005 27.1159 179.005 27.4585 179.005 27.8322V30.1055C179.005 30.4792 179.005 30.8218 179.005 31.1021C179.005 31.3824 179.005 31.6003 179.068 31.7561H178.348V27.4585L175.373 31.5381V31.7249H174.715V27.801C174.715 27.4273 174.715 27.0848 174.715 26.8045C174.715 26.5242 174.715 26.3062 174.652 26.1505H175.373V30.4481V30.4792ZM173.274 26.1505V30.0744C173.274 30.4481 173.274 30.7907 173.274 31.0709C173.274 31.3512 173.274 31.5692 173.337 31.7249H172.585V27.801C172.585 27.4273 172.585 27.0848 172.585 26.8045C172.585 26.5242 172.585 26.3062 172.523 26.1505H173.274ZM169.109 31.1644C169.109 31.1644 169.265 31.1644 169.391 31.1644C169.516 31.1644 169.673 31.1644 169.892 31.1644C170.08 31.1644 170.236 31.1644 170.424 31.1021C170.581 31.0709 170.737 31.0086 170.863 30.9152C170.988 30.8218 171.082 30.6972 171.144 30.5727C171.207 30.4481 171.27 30.2612 171.27 30.0744C171.27 29.8875 171.238 29.763 171.176 29.6384C171.113 29.5138 171.019 29.4204 170.894 29.327C170.769 29.2336 170.643 29.2024 170.455 29.1401C170.268 29.109 170.08 29.0779 169.86 29.0779H169.109V31.1644ZM169.109 26.1505V28.455H169.86C170.236 28.455 170.581 28.4862 170.831 28.5796C171.113 28.6419 171.332 28.7664 171.489 28.891C171.677 29.0156 171.802 29.2024 171.865 29.3893C171.959 29.5761 171.99 29.7941 171.99 30.0433C171.99 30.2924 171.959 30.5104 171.865 30.6972C171.771 30.9152 171.646 31.1021 171.489 31.2578C171.301 31.4135 171.082 31.5381 170.831 31.6315C170.549 31.7249 170.236 31.7561 169.86 31.7561C169.673 31.7561 169.485 31.7561 169.297 31.7561C169.109 31.7561 168.952 31.7561 168.796 31.7561C168.639 31.7561 168.451 31.7561 168.295 31.7561C168.295 31.6938 168.294 31.5692 168.326 31.4758C168.326 31.3512 168.326 31.2266 168.326 31.0709C168.326 30.9152 168.326 30.7595 168.326 30.5727V27.8322C168.326 27.4585 168.326 27.1159 168.326 26.8356C168.326 26.5554 168.326 26.3374 168.263 26.1817H169.046L169.109 26.1505ZM166.196 31.7561V29.1713H163.377V31.7561H162.595C162.595 31.7561 162.626 31.3824 162.657 31.1021C162.657 30.8218 162.657 30.4792 162.657 30.1055V27.8633C162.657 27.4896 162.657 27.1471 162.657 26.8668C162.657 26.5865 162.657 26.3685 162.595 26.2128H163.377V28.6107H166.196V26.2128H166.979C166.979 26.2128 166.948 26.5865 166.916 26.8668C166.916 27.1471 166.916 27.4896 166.916 27.8633V30.1055C166.916 30.4792 166.916 30.8218 166.916 31.1021C166.916 31.3824 166.916 31.6003 166.979 31.7561H166.196ZM158.523 31.1644C158.523 31.1644 158.68 31.1644 158.805 31.1644C158.93 31.1644 159.087 31.1644 159.306 31.1644C159.494 31.1644 159.651 31.1644 159.838 31.1021C159.995 31.0709 160.152 31.0086 160.277 30.9152C160.402 30.8218 160.496 30.6972 160.559 30.5727C160.621 30.4481 160.684 30.2612 160.684 30.0744C160.684 29.8875 160.684 29.763 160.59 29.6384C160.527 29.5138 160.434 29.4204 160.308 29.327C160.183 29.2336 160.058 29.2024 159.87 29.1401C159.682 29.109 159.494 29.0779 159.275 29.0779H158.523V31.1644ZM158.523 26.1505V28.455H159.275C159.651 28.455 159.964 28.4862 160.246 28.5796C160.527 28.6419 160.747 28.7664 160.903 28.891C161.091 29.0156 161.216 29.2024 161.279 29.3893C161.373 29.5761 161.404 29.7941 161.404 30.0433C161.404 30.2924 161.373 30.5104 161.279 30.6972C161.185 30.9152 161.06 31.1021 160.903 31.2578C160.715 31.4135 160.496 31.5381 160.246 31.6315C159.964 31.7249 159.651 31.7561 159.275 31.7561C159.087 31.7561 158.899 31.7561 158.711 31.7561C158.523 31.7561 158.366 31.7561 158.21 31.7561C158.053 31.7561 157.865 31.7561 157.74 31.7561C157.74 31.6938 157.74 31.5692 157.771 31.4758C157.771 31.3512 157.771 31.2266 157.771 31.0709C157.771 30.9152 157.771 30.7595 157.771 30.5727V27.8322C157.771 27.4585 157.771 27.1159 157.771 26.8356C157.771 26.5554 157.771 26.3374 157.709 26.1817H158.492L158.523 26.1505ZM154.232 26.8045C154.232 27.2716 154.17 27.7076 154.138 28.1125C154.107 28.5173 154.045 28.8599 153.982 29.1713C153.919 29.4827 153.825 29.763 153.763 30.0433C153.669 30.2924 153.575 30.5104 153.481 30.6972C153.355 30.8841 153.262 31.0709 153.105 31.2266C152.98 31.3824 152.823 31.4758 152.698 31.5692C152.541 31.6626 152.385 31.7249 152.228 31.7561C152.071 31.7872 151.884 31.8183 151.696 31.8183V31.0709C151.696 31.0709 151.915 31.0709 152.04 31.0398C152.165 31.0398 152.259 30.9775 152.353 30.9152C152.447 30.8529 152.541 30.7907 152.635 30.6972C152.729 30.6038 152.792 30.4792 152.886 30.3547C152.98 30.199 153.042 30.0121 153.136 29.763C153.199 29.545 153.262 29.2647 153.324 28.9221C153.387 28.5796 153.418 28.2059 153.481 27.7699C153.512 27.3339 153.575 26.8045 153.575 26.2128H156.613C156.613 26.2128 156.581 26.5865 156.55 26.8668C156.55 27.1471 156.55 27.4896 156.55 27.8633V30.1367C156.55 30.5104 156.55 30.8529 156.55 31.1332C156.55 31.4135 156.55 31.6315 156.613 31.7872H155.83V26.8356H154.264L154.232 26.8045ZM150.599 28.5173V29.1401H148.407V31.1332H149.409C149.785 31.1332 150.098 31.1332 150.38 31.1332C150.631 31.1332 150.85 31.1332 151.007 31.0709V31.7561H147.624C147.624 31.7561 147.655 31.3824 147.687 31.1021C147.687 30.8218 147.687 30.4792 147.687 30.1055V27.8633C147.687 27.4896 147.687 27.1471 147.687 26.8668C147.687 26.5865 147.687 26.3685 147.624 26.2128H150.881V26.8356H148.407V28.5484H150.599V28.5173ZM146.747 26.1505V26.8668C146.747 26.8668 146.434 26.8045 146.277 26.8045C146.121 26.8045 145.964 26.8045 145.776 26.8045H144.868V30.0744C144.868 30.4481 144.868 30.7907 144.868 31.0709C144.868 31.3512 144.868 31.5692 144.931 31.7249H144.054C144.054 31.7249 144.116 31.3512 144.116 31.0709C144.116 30.7907 144.116 30.4481 144.116 30.0744V26.8045H143.208C143.02 26.8045 142.864 26.8045 142.707 26.8045C142.551 26.8045 142.394 26.8045 142.237 26.8668V26.1505H146.685H146.747ZM137.727 30.4792L140.703 26.3685V26.1817H141.423C141.423 26.1817 141.392 26.5554 141.36 26.8356C141.36 27.1159 141.36 27.4585 141.36 27.8322V30.1055C141.36 30.4792 141.36 30.8218 141.36 31.1021C141.36 31.3824 141.36 31.6003 141.423 31.7561H140.703V27.4585L137.727 31.5381V31.7249H137.07V27.801C137.07 27.4273 137.07 27.0848 137.07 26.8045C137.07 26.5242 137.07 26.3062 137.007 26.1505H137.727V30.4481V30.4792ZM133.186 28.9844C133.186 28.9844 133.437 28.9844 133.562 28.9844C133.687 28.9844 133.813 28.9844 133.969 28.9844C134.251 28.9844 134.47 28.9844 134.627 28.891C134.815 28.8287 134.94 28.7353 135.034 28.6419C135.128 28.5484 135.222 28.4239 135.253 28.2682C135.285 28.1436 135.316 27.9879 135.316 27.8322C135.316 27.6765 135.316 27.5208 135.253 27.3962C135.222 27.2716 135.128 27.1471 135.034 27.0225C134.94 26.9291 134.784 26.8356 134.627 26.7734C134.47 26.7111 134.251 26.6799 133.969 26.6799C133.875 26.6799 133.813 26.6799 133.719 26.6799C133.656 26.6799 133.593 26.6799 133.531 26.6799C133.468 26.6799 133.405 26.6799 133.343 26.6799C133.28 26.6799 133.218 26.6799 133.155 26.6799V28.9221L133.186 28.9844ZM133.186 30.0744C133.186 30.4481 133.186 30.7907 133.186 31.0709C133.186 31.3512 133.186 31.5692 133.249 31.7249H132.403C132.403 31.7249 132.435 31.3512 132.466 31.0709C132.466 30.7907 132.466 30.4481 132.466 30.0744V27.3651C132.466 27.1782 132.466 27.0225 132.466 26.8668C132.466 26.7111 132.466 26.5865 132.466 26.4619C132.466 26.3374 132.466 26.2439 132.435 26.1505C132.591 26.1505 132.779 26.1505 132.936 26.1505C133.092 26.1505 133.249 26.1505 133.468 26.1505C133.656 26.1505 133.875 26.1505 134.063 26.1505C134.376 26.1505 134.658 26.1817 134.909 26.2439C135.159 26.3062 135.379 26.4308 135.566 26.5554C135.754 26.6799 135.88 26.8668 135.974 27.0848C136.068 27.3028 136.13 27.5519 136.13 27.8322C136.13 28.1125 136.068 28.3616 136.005 28.5796C135.911 28.7976 135.786 28.9844 135.598 29.1401C135.41 29.2958 135.222 29.4204 134.94 29.5138C134.69 29.6073 134.408 29.6384 134.095 29.6384C133.938 29.6384 133.813 29.6384 133.656 29.6384C133.499 29.6384 133.374 29.6384 133.249 29.6384V30.1367L133.186 30.0744ZM130.587 29.0156C130.587 28.673 130.555 28.3305 130.462 28.0502C130.368 27.7699 130.274 27.5208 130.117 27.3339C129.96 27.1471 129.804 26.9914 129.585 26.8979C129.397 26.8045 129.146 26.7422 128.927 26.7422C128.708 26.7422 128.457 26.8045 128.269 26.8979C128.081 26.9914 127.893 27.1471 127.737 27.3339C127.58 27.5208 127.486 27.7388 127.392 28.019C127.298 28.2993 127.267 28.5796 127.267 28.9221C127.267 29.2647 127.298 29.5761 127.392 29.8564C127.486 30.1367 127.58 30.3858 127.737 30.5727C127.893 30.7595 128.05 30.9152 128.269 31.0398C128.488 31.1332 128.708 31.1955 128.958 31.1955C129.209 31.1955 129.428 31.1332 129.616 31.0398C129.804 30.9464 129.992 30.7907 130.148 30.6038C130.305 30.417 130.399 30.199 130.493 29.9187C130.587 29.6384 130.618 29.3581 130.618 29.0156H130.587ZM131.338 28.9221C131.338 29.3893 131.276 29.7941 131.119 30.1367C130.994 30.5104 130.806 30.7907 130.587 31.0709C130.368 31.3201 130.117 31.5069 129.804 31.6315C129.522 31.756 129.209 31.8183 128.896 31.8183C128.582 31.8183 128.301 31.756 128.019 31.6315C127.737 31.5069 127.486 31.3201 127.267 31.0709C127.048 30.8218 126.891 30.5415 126.735 30.1678C126.609 29.8253 126.547 29.4204 126.547 28.9533C126.547 28.6419 126.578 28.3616 126.641 28.1125C126.703 27.8633 126.797 27.6142 126.891 27.3962C127.016 27.1782 127.142 26.9913 127.298 26.8045C127.455 26.6488 127.612 26.4931 127.799 26.3685C127.987 26.2439 128.175 26.1817 128.363 26.1194C128.551 26.0571 128.77 26.026 128.99 26.026C129.303 26.026 129.585 26.0882 129.866 26.2128C130.148 26.3374 130.399 26.5242 130.618 26.7734C130.837 27.0225 130.994 27.3028 131.151 27.6765C131.276 28.019 131.338 28.4239 131.338 28.891V28.9221ZM122.381 28.455H123.29C123.509 28.455 123.728 28.455 123.885 28.3927C124.041 28.3616 124.198 28.2993 124.292 28.2059C124.386 28.1436 124.48 28.0502 124.511 27.9256C124.574 27.801 124.574 27.6765 124.574 27.5519C124.574 27.4273 124.574 27.2716 124.511 27.1782C124.48 27.0848 124.386 26.9914 124.292 26.8979C124.198 26.8356 124.073 26.7734 123.916 26.7422C123.759 26.7111 123.571 26.6799 123.384 26.6799C123.29 26.6799 123.164 26.6799 123.07 26.6799C122.976 26.6799 122.882 26.6799 122.788 26.6799C122.695 26.6799 122.632 26.6799 122.538 26.6799C122.475 26.6799 122.413 26.6799 122.381 26.6799V28.4239V28.455ZM122.381 31.1644C122.381 31.1644 122.601 31.1644 122.788 31.1644C122.976 31.1644 123.196 31.1644 123.477 31.1644C123.665 31.1644 123.853 31.1644 124.01 31.1021C124.166 31.0709 124.323 31.0087 124.448 30.9464C124.574 30.8529 124.668 30.7595 124.762 30.6349C124.824 30.5104 124.887 30.3235 124.887 30.1367C124.887 29.763 124.762 29.4827 124.511 29.327C124.26 29.1713 123.916 29.0779 123.446 29.0779H122.381V31.1644ZM125.607 30.1367C125.607 30.3547 125.576 30.5727 125.482 30.7907C125.388 30.9775 125.263 31.1644 125.075 31.3201C124.887 31.4758 124.668 31.6003 124.386 31.6626C124.104 31.7561 123.791 31.7872 123.415 31.7872C122.976 31.7872 122.569 31.7872 122.256 31.7872C121.943 31.7872 121.692 31.7872 121.536 31.7872C121.536 31.7249 121.536 31.6003 121.567 31.5069C121.567 31.3824 121.567 31.2578 121.567 31.1021C121.567 30.9464 121.567 30.7907 121.567 30.6038V27.4273C121.567 27.2405 121.567 27.0848 121.567 26.9291C121.567 26.7734 121.567 26.6488 121.567 26.5242C121.567 26.3997 121.567 26.3062 121.536 26.2128C121.63 26.2128 121.724 26.2128 121.849 26.2128C121.974 26.2128 122.131 26.2128 122.287 26.2128C122.444 26.2128 122.632 26.2128 122.82 26.2128C123.008 26.2128 123.196 26.2128 123.384 26.2128C123.665 26.2128 123.947 26.2128 124.166 26.2751C124.417 26.3062 124.605 26.3997 124.762 26.4931C124.918 26.5865 125.043 26.7422 125.137 26.8979C125.231 27.0536 125.263 27.2716 125.263 27.5208C125.263 27.6765 125.263 27.8322 125.2 27.9568C125.137 28.0813 125.075 28.2059 125.012 28.2993C124.918 28.3927 124.824 28.4862 124.699 28.5484C124.574 28.6107 124.448 28.673 124.323 28.7353C124.48 28.7664 124.605 28.8287 124.762 28.891C124.918 28.9533 125.043 29.0467 125.169 29.1713C125.294 29.2959 125.388 29.4204 125.451 29.5761C125.513 29.7318 125.576 29.9498 125.576 30.199L125.607 30.1367ZM120.721 26.1505V26.8668C120.721 26.8668 120.408 26.8045 120.252 26.8045C120.095 26.8045 119.938 26.8045 119.751 26.8045H118.842V30.0744C118.842 30.4481 118.842 30.7907 118.842 31.0709C118.842 31.3512 118.842 31.5692 118.905 31.7249H118.028C118.028 31.7249 118.091 31.3512 118.091 31.0709C118.091 30.7907 118.091 30.4481 118.091 30.0744V26.8045H117.182C116.995 26.8045 116.838 26.8045 116.681 26.8045C116.525 26.8045 116.368 26.8045 116.212 26.8668V26.1505H120.659H120.721ZM114.896 29.0156C114.896 28.673 114.865 28.3305 114.771 28.0502C114.708 27.7699 114.583 27.5208 114.426 27.3339C114.27 27.1471 114.113 26.9914 113.894 26.8979C113.706 26.8045 113.455 26.7422 113.236 26.7422C113.017 26.7422 112.766 26.8045 112.579 26.8979C112.391 26.9914 112.203 27.1471 112.046 27.3339C111.89 27.5208 111.796 27.7388 111.702 28.019C111.608 28.2993 111.576 28.5796 111.576 28.9221C111.576 29.2647 111.608 29.5761 111.702 29.8564C111.764 30.1367 111.89 30.3858 112.046 30.5727C112.203 30.7595 112.359 30.9152 112.579 31.0398C112.766 31.1332 113.017 31.1955 113.268 31.1955C113.518 31.1955 113.706 31.1332 113.925 31.0398C114.113 30.9464 114.301 30.7907 114.458 30.6038C114.614 30.417 114.708 30.199 114.802 29.9187C114.896 29.6384 114.927 29.3581 114.927 29.0156H114.896ZM115.648 28.9221C115.648 29.3893 115.585 29.7941 115.429 30.1367C115.303 30.5104 115.115 30.7907 114.896 31.0709C114.677 31.3201 114.426 31.5069 114.113 31.6315C113.831 31.756 113.518 31.8183 113.205 31.8183C112.892 31.8183 112.61 31.756 112.328 31.6315C112.046 31.5069 111.796 31.3201 111.576 31.0709C111.357 30.8218 111.169 30.5415 111.044 30.1678C110.919 29.8253 110.856 29.4204 110.856 28.9533C110.856 28.6419 110.856 28.3616 110.95 28.1125C111.013 27.8633 111.107 27.6142 111.201 27.3962C111.326 27.1782 111.451 26.9913 111.608 26.8045C111.764 26.6488 111.921 26.4931 112.109 26.3685C112.297 26.2439 112.485 26.1817 112.673 26.1194C112.86 26.0571 113.08 26.026 113.299 26.026C113.612 26.026 113.894 26.0882 114.176 26.2128C114.458 26.3374 114.708 26.5242 114.927 26.7734C115.147 27.0225 115.303 27.3028 115.46 27.6765C115.585 28.019 115.648 28.4239 115.648 28.891V28.9221ZM110.292 26.8668C110.292 26.8668 109.916 26.8356 109.635 26.8045C109.353 26.8045 109.008 26.8045 108.632 26.8045H107.787V31.7561H107.004C107.004 31.7561 107.035 31.3824 107.066 31.1021C107.066 30.8218 107.066 30.4792 107.066 30.1055V27.8633C107.066 27.4896 107.066 27.1471 107.066 26.8668C107.066 26.5865 107.066 26.3685 107.004 26.2128H110.324V26.8979L110.292 26.8668ZM101.147 31.7561C101.147 31.7561 101.21 31.6003 101.241 31.5069C101.273 31.4135 101.304 31.3201 101.366 31.2266C101.398 31.1332 101.46 31.0086 101.492 30.8529C101.554 30.7284 101.617 30.5727 101.68 30.3858L103.214 26.1505H104.029L105.563 30.3858C105.626 30.5727 105.688 30.7284 105.751 30.8529C105.814 30.9775 105.845 31.1021 105.908 31.2266C105.939 31.3201 106.002 31.4135 106.033 31.5069C106.064 31.6003 106.096 31.6626 106.127 31.7561H105.344L104.812 30.2924H102.431L101.93 31.7561H101.147ZM103.621 26.8979L102.651 29.6696H104.592L103.621 26.8979ZM98.078 26.8045C98.078 27.2716 98.0154 27.7076 97.9841 28.1125C97.9527 28.5173 97.8901 28.8599 97.8275 29.1713C97.7648 29.4827 97.6709 29.763 97.6082 30.0433C97.5143 30.2924 97.4203 30.5104 97.3264 30.6972C97.2011 30.8841 97.1071 31.0709 96.9505 31.2266C96.8253 31.3824 96.6687 31.4758 96.5434 31.5692C96.3868 31.6626 96.2302 31.7249 96.0736 31.7561C95.917 31.7872 95.7291 31.8183 95.5412 31.8183V31.0709C95.5412 31.0709 95.7604 31.0709 95.8857 31.0398C96.011 31.0398 96.1049 30.9775 96.1989 30.9152C96.2929 30.8529 96.3868 30.7907 96.4808 30.6972C96.5747 30.6038 96.6687 30.4792 96.7313 30.3547C96.8253 30.199 96.8879 30.0121 96.9819 29.763C97.0445 29.545 97.1071 29.2647 97.1698 28.9221C97.2324 28.5796 97.2637 28.2059 97.3264 27.7699C97.3577 27.3339 97.4203 26.8045 97.4203 26.2128H100.458C100.458 26.2128 100.427 26.5865 100.396 26.8668C100.396 27.1471 100.396 27.4896 100.396 27.8633V30.1367C100.396 30.5104 100.396 30.8529 100.396 31.1332C100.396 31.4135 100.396 31.6315 100.458 31.7872H99.6753V26.8356H98.1093L98.078 26.8045ZM91.7516 31.1644C91.7516 31.1644 91.9396 31.1644 92.0962 31.1644C92.2527 31.1644 92.4407 31.1644 92.6599 31.1644C92.8478 31.1644 93.0044 31.1644 93.1923 31.1021C93.3489 31.0709 93.5055 31.0086 93.6308 30.9152C93.756 30.8218 93.85 30.6972 93.944 30.5727C94.0066 30.4481 94.0379 30.2612 94.0379 30.0744C94.0379 29.8875 94.0066 29.763 93.944 29.6384C93.8813 29.5138 93.7874 29.4204 93.6621 29.327C93.5368 29.2336 93.4115 29.2024 93.2236 29.1401C93.0357 29.109 92.8478 29.0779 92.6286 29.0779H91.7516V31.1644ZM94.4137 26.1505V26.8356C94.4137 26.8356 94.0379 26.8045 93.756 26.7734C93.4742 26.7734 93.1297 26.7734 92.7538 26.7734H91.783V28.455H92.6599C93.0357 28.455 93.3489 28.4862 93.6308 28.5796C93.9126 28.6419 94.1319 28.7664 94.2885 28.891C94.4764 29.0156 94.6016 29.2024 94.6643 29.3893C94.7582 29.5761 94.7896 29.7941 94.7896 30.0433C94.7896 30.2924 94.7582 30.5104 94.6643 30.6972C94.5703 30.9152 94.4451 31.1021 94.2885 31.2578C94.1005 31.4135 93.8813 31.5381 93.6308 31.6315C93.3489 31.7249 93.0357 31.7561 92.6912 31.7561C92.5033 31.7561 92.2841 31.7561 92.0962 31.7561C91.9082 31.7561 91.7203 31.7561 91.5637 31.7561C91.3758 31.7561 91.1879 31.7561 91.0313 31.7561C91.0313 31.6938 91.0313 31.5692 91.0626 31.4758C91.0626 31.3512 91.0626 31.2266 91.0626 31.0709C91.0626 30.9152 91.0626 30.7595 91.0626 30.5727V27.8322C91.0626 27.4585 91.0626 27.1159 91.0626 26.8356C91.0626 26.5554 91.0626 26.3374 91 26.1817H94.4451L94.4137 26.1505Z" fill="#0F0E09"/>
</g>
<defs>
<clipPath id="clip0_1_2250">
<rect width="243" height="38" fill="white" transform="translate(0 0.5)"/>
</clipPath>
</defs>
</svg>
