<svg width="68" height="27" viewBox="0 0 68 27" fill="none" xmlns="http://www.w3.org/2000/svg">
<g clip-path="url(#clip0_1_549)">
<g clip-path="url(#clip1_1_549)">
<g clip-path="url(#clip2_1_549)">
<path d="M7.64859 26.9998C8.30535 24.5104 8.96002 22.0231 9.62303 19.5128C9.33114 19.6525 9.05801 19.7734 8.78071 19.8797C7.73824 20.2759 6.66241 20.499 5.54279 20.4719C4.36479 20.4427 3.25977 20.155 2.27776 19.4836C1.14147 18.708 0.449263 17.6301 0.149031 16.2957C-0.0928234 15.2157 -0.0281899 14.1399 0.255363 13.0766C0.747411 11.2335 1.75236 9.69897 3.13468 8.40631C4.37313 7.24708 5.79924 6.4131 7.43801 5.95859C8.6306 5.62917 9.83778 5.53951 11.0554 5.80013C12.3397 6.07534 13.4197 6.69457 14.2308 7.7433C14.8583 8.55642 15.1919 9.49048 15.2983 10.5058C15.3983 11.4566 15.2691 12.3823 15.0189 13.2976C14.6811 14.5381 14.3559 15.7828 14.0264 17.0255C13.3155 19.7192 12.6233 22.4192 11.8873 25.1067C11.5975 26.1638 10.849 26.783 9.76689 26.9811C9.75438 26.9831 9.74396 26.9915 9.73145 26.9977C9.03925 26.9998 8.34287 26.9998 7.64859 26.9998ZM3.89985 14.0231C3.90402 14.094 3.90402 14.2066 3.91862 14.3171C4.04997 15.4159 4.61916 16.1769 5.66997 16.5543C6.25376 16.7628 6.85839 16.7753 7.45886 16.6481C8.90581 16.3395 10.0046 15.5285 10.7927 14.29C11.2493 13.5707 11.4932 12.7826 11.4432 11.9194C11.3765 10.7873 10.6634 9.88036 9.58133 9.55928C8.98712 9.38206 8.38666 9.38206 7.78828 9.52175C6.47059 9.83032 5.44271 10.5726 4.67754 11.6776C4.198 12.3677 3.91862 13.1329 3.89985 14.0231Z" fill="#FCFCF8"/>
<path d="M48.66 0.00208506C48.3306 1.24888 48.0032 2.49567 47.6738 3.74037C47.6446 3.76331 47.6134 3.75288 47.5821 3.75288C46.9816 3.75288 46.3791 3.75705 45.7786 3.75288C45.3554 3.7508 44.976 3.62362 44.6882 3.29837C44.338 2.90431 44.2754 2.4352 44.3964 1.94107C44.5569 1.29266 44.7362 0.64633 44.9072 0C46.1581 0 47.409 1.27358e-07 48.66 0.00208506Z" fill="#FCFCF8"/>
<path d="M67.1739 5.71281C67.0926 5.92964 67.0467 6.1569 66.9883 6.38208C66.8361 6.9471 66.6902 7.5142 66.5422 8.08131C66.5296 8.12926 66.5109 8.15636 66.4525 8.15428C65.6581 8.15219 64.8617 8.15219 64.0673 8.15219C64.0548 8.15219 64.0423 8.14803 64.0215 8.14594C64.2404 7.31405 64.4593 6.48841 64.6782 5.65234C65.5101 5.65234 66.342 5.65234 67.1739 5.65234C67.1739 5.67111 67.1739 5.69196 67.1739 5.71281Z" fill="#FCFCF8"/>
<path d="M21.5739 20.4763C20.8337 20.4722 19.8329 20.2762 18.9093 19.7716C17.4374 18.9689 16.5742 17.7221 16.2635 16.0854C16.0717 15.0742 16.1468 14.0714 16.4116 13.081C16.8911 11.288 17.8564 9.78474 19.1845 8.50667C20.3521 7.38497 21.699 6.55724 23.2439 6.06103C24.1404 5.7733 25.0599 5.62319 26.0023 5.65446C27.224 5.69408 28.3624 6.01099 29.3611 6.74072C30.4891 7.56636 31.1458 8.69222 31.3918 10.0599C31.6191 11.3193 31.4544 12.5452 31.0249 13.7399C30.4015 15.4766 29.3403 16.9069 27.9392 18.0911C26.7466 19.0982 25.4018 19.8216 23.8861 20.2136C23.2168 20.3888 22.5329 20.4742 21.5739 20.4763ZM20.0581 14.0213C20.0623 14.0922 20.0623 14.2048 20.0769 14.3153C20.2082 15.4141 20.7753 16.1772 21.8241 16.5525C22.4078 16.763 23.0125 16.7755 23.6129 16.6484C25.064 16.3398 26.1649 15.5267 26.953 14.284C27.4075 13.5668 27.6494 12.7808 27.5993 11.9218C27.5326 10.7897 26.8216 9.88273 25.7396 9.55956C25.1454 9.38234 24.5449 9.38234 23.9465 9.52203C22.6288 9.8306 21.601 10.5728 20.8337 11.6758C20.3563 12.3659 20.0769 13.1311 20.0581 14.0213Z" fill="#FCFCF8"/>
<path d="M44.6206 20.4764C44.6102 20.4096 44.6581 20.3867 44.6873 20.3575C46.4762 18.5895 48.2651 16.8215 50.054 15.0555C50.7024 14.4154 51.3487 13.7754 51.9971 13.1374C52.0493 13.0852 52.0618 13.0477 52.0263 12.9768C50.8588 10.5729 49.6933 8.16687 48.5257 5.76084C48.5111 5.72957 48.4986 5.69829 48.4861 5.67119C48.5028 5.64617 48.5215 5.65243 48.5382 5.65243C49.1845 5.65243 49.8309 5.64617 50.4772 5.65451C51.0798 5.66285 51.6427 5.82131 52.141 6.17366C52.4996 6.42802 52.7769 6.75328 52.9625 7.1515C53.4337 8.16478 53.934 9.16555 54.4178 10.1726C54.4782 10.2977 54.5387 10.4207 54.6179 10.5833C54.8723 10.3164 55.1079 10.0621 55.3518 9.81814C56.2108 8.96331 57.0802 8.11891 57.933 7.25575C58.6481 6.53436 59.4717 6.01104 60.462 5.76501C60.756 5.69204 61.0541 5.65034 61.3586 5.65034C61.984 5.64826 62.6095 5.65034 63.235 5.65034C63.2559 5.65034 63.2746 5.65034 63.3101 5.65034C63.1287 5.83382 62.9598 6.00478 62.7888 6.17366C60.487 8.44625 58.1873 10.7188 55.8856 12.9914C55.8334 13.0435 55.8251 13.0832 55.8585 13.152C57.0198 15.5434 58.179 17.939 59.3403 20.3325C59.3612 20.3742 59.3966 20.4138 59.3633 20.4722C59.3424 20.4743 59.3174 20.4764 59.2945 20.4764C58.669 20.4764 58.0435 20.4868 57.418 20.4743C56.6153 20.4576 55.9064 20.2012 55.3456 19.6028C55.1517 19.3964 55.0078 19.1545 54.8869 18.9001C54.3615 17.8035 53.8319 16.711 53.3044 15.6164C53.3002 15.608 53.2919 15.5997 53.2856 15.5893C53.2502 15.5913 53.2356 15.6205 53.2147 15.6414C52.1598 16.6839 51.0964 17.718 50.0519 18.7709C49.5786 19.2483 49.0719 19.6716 48.4694 19.976C47.8022 20.3117 47.0975 20.491 46.3469 20.4805C45.7715 20.468 45.1981 20.4764 44.6206 20.4764Z" fill="#FCFCF8"/>
<path d="M30.6406 20.4719C30.7177 20.1779 30.7907 19.8944 30.8658 19.6088C31.068 18.8415 31.2723 18.0742 31.4746 17.307C31.6789 16.5335 31.8811 15.7579 32.0855 14.9844C32.4336 13.6604 32.7839 12.3365 33.1342 11.0125C33.2843 10.4434 33.424 9.86999 33.5887 9.30497C33.8472 8.42096 34.3476 7.6808 35.0211 7.05949C35.7383 6.39648 36.5681 5.94196 37.5334 5.75015C37.7252 5.71262 37.917 5.6876 38.1109 5.67926C39.412 5.62505 40.713 5.66884 42.016 5.65633C42.0223 5.65633 42.0286 5.65841 42.0515 5.66467C41.7221 6.90938 41.3947 8.15409 41.0674 9.39671C41.0299 9.41756 40.9903 9.40714 40.9548 9.40714C40.4065 9.40714 39.856 9.40714 39.3077 9.40714C38.2611 9.41131 37.523 9.9242 37.008 10.802C36.8433 11.0813 36.787 11.3983 36.7057 11.7068C36.3617 13.0037 36.0177 14.3005 35.6757 15.5973C35.3088 16.9922 34.9418 18.387 34.577 19.7818C34.5165 20.0132 34.454 20.2426 34.3914 20.474C33.1425 20.4719 31.8999 20.4719 30.6406 20.4719Z" fill="#FCFCF8"/>
<path d="M43.4171 5.65469C44.0884 5.65469 44.7493 5.63593 45.4103 5.65886C46.2755 5.68805 46.851 6.4011 46.7259 7.25801C46.6654 7.68126 46.5278 8.08782 46.4194 8.49855C45.5145 11.9366 44.6055 15.3747 43.6985 18.8128C43.5588 19.3382 43.4212 19.8657 43.2815 20.3911C43.2753 20.4182 43.2649 20.4432 43.2586 20.4703C42.0076 20.4703 40.7608 20.4703 39.5078 20.4703C40.8109 15.5311 42.1119 10.596 43.4171 5.65469Z" fill="#FCFCF8"/>
</g>
</g>
</g>
<defs>
<clipPath id="clip0_1_549">
<rect width="68" height="27" fill="white"/>
</clipPath>
<clipPath id="clip1_1_549">
<rect width="68" height="27" fill="white"/>
</clipPath>
<clipPath id="clip2_1_549">
<rect width="68" height="27" fill="white"/>
</clipPath>
</defs>
</svg>
