<svg width="23" height="24" viewBox="0 0 23 24" fill="none" xmlns="http://www.w3.org/2000/svg">
<path d="M5.22287 5.58333H5.23398M17.4451 5.58333H17.4562M5.22287 18.4167H5.23398M12.4451 13.1667H12.4562M17.4451 18.4167H17.4562M16.8895 22.5H21.334V17.8333M13.5562 17.25V22.5M21.334 14.3333H16.334M15.334 9.66667H19.5562C20.1785 9.66667 20.4896 9.66667 20.7273 9.53951C20.9364 9.42766 21.1064 9.24918 21.2129 9.02966C21.334 8.78009 21.334 8.45339 21.334 7.8V3.36667C21.334 2.71327 21.334 2.38657 21.2129 2.13701C21.1064 1.91749 20.9364 1.73901 20.7273 1.62716C20.4896 1.5 20.1785 1.5 19.5562 1.5H15.334C14.7117 1.5 14.4006 1.5 14.1629 1.62716C13.9538 1.73901 13.7838 1.91749 13.6773 2.13701C13.5562 2.38657 13.5562 2.71327 13.5562 3.36667V7.8C13.5562 8.45339 13.5562 8.78009 13.6773 9.02966C13.7838 9.24918 13.9538 9.42766 14.1629 9.53951C14.4006 9.66667 14.7117 9.66667 15.334 9.66667ZM3.11176 9.66667H7.33398C7.95627 9.66667 8.26741 9.66667 8.50509 9.53951C8.71415 9.42766 8.88413 9.24918 8.99066 9.02966C9.11176 8.78009 9.11176 8.45339 9.11176 7.8V3.36667C9.11176 2.71327 9.11176 2.38657 8.99066 2.13701C8.88413 1.91749 8.71415 1.73901 8.50509 1.62716C8.26741 1.5 7.95627 1.5 7.33398 1.5H3.11176C2.48948 1.5 2.17834 1.5 1.94066 1.62716C1.73159 1.73901 1.56161 1.91749 1.45509 2.13701C1.33398 2.38657 1.33398 2.71327 1.33398 3.36667V7.8C1.33398 8.45339 1.33398 8.78009 1.45509 9.02966C1.56161 9.24918 1.73159 9.42766 1.94066 9.53951C2.17834 9.66667 2.48948 9.66667 3.11176 9.66667ZM3.11176 22.5H7.33398C7.95627 22.5 8.26741 22.5 8.50509 22.3728C8.71415 22.261 8.88413 22.0825 8.99066 21.863C9.11176 21.6134 9.11176 21.2867 9.11176 20.6333V16.2C9.11176 15.5466 9.11176 15.2199 8.99066 14.9703C8.88413 14.7508 8.71415 14.5723 8.50509 14.4605C8.26741 14.3333 7.95627 14.3333 7.33398 14.3333H3.11176C2.48948 14.3333 2.17834 14.3333 1.94066 14.4605C1.73159 14.5723 1.56161 14.7508 1.45509 14.9703C1.33398 15.2199 1.33398 15.5466 1.33398 16.2V20.6333C1.33398 21.2867 1.33398 21.6134 1.45509 21.863C1.56161 22.0825 1.73159 22.261 1.94066 22.3728C2.17834 22.5 2.48948 22.5 3.11176 22.5Z" stroke="#494949" stroke-width="2" stroke-linecap="round" stroke-linejoin="round"/>
</svg>
