<svg aria-hidden="true" xmlns="http://www.w3.org/2000/svg" xmlns:xlink="http://www.w3.org/1999/xlink"><symbol viewBox="0 0 27 14" fill="none" id="icon-arrow" xmlns="http://www.w3.org/2000/svg">
<path d="M0 7H25M25 7L19.5 1.5M25 7L19.5 12.5" stroke="currentColor" stroke-width="2"/>
</symbol><symbol fill="currentColor" viewBox="0 0 256 256" id="icon-mail" xmlns="http://www.w3.org/2000/svg"><path d="M224,48H32a8,8,0,0,0-8,8V192a16,16,0,0,0,16,16H216a16,16,0,0,0,16-16V56A8,8,0,0,0,224,48ZM203.43,64,128,133.15,52.57,64ZM216,192H40V74.19l82.59,75.71a8,8,0,0,0,10.82,0L216,74.19V192Z"/></symbol><symbol viewBox="0 0 50 50" fill="none" id="icon-rutube" xmlns="http://www.w3.org/2000/svg">
<path d="M29.4375 20.0723C30.2348 20.0723 30.7892 20.2105 31.0674 20.4521C31.3456 20.6938 31.5176 21.1422 31.5176 21.7969V23.7275C31.5176 24.4173 31.3456 24.8658 31.0674 25.1074C30.7891 25.3489 30.2346 25.4521 29.4375 25.4521V25.4502H15.7881V20.0723H29.4375Z" fill="currentColor"/>
<path fill-rule="evenodd" clip-rule="evenodd" d="M25 0C38.8071 0 50 11.1929 50 25C50 38.8071 38.8071 50 25 50C11.1929 50 0 38.8071 0 25C0 11.1929 11.1929 0 25 0ZM30.374 15.002H10V38H15.7881V30.5176H26.4561L31.5176 38H38L32.4189 30.4824C34.4764 30.1788 35.4002 29.5512 36.1621 28.5166C36.9241 27.482 37.3066 25.8278 37.3066 23.6201V21.8955C37.3066 20.5864 37.1677 19.5517 36.9248 18.7588C36.6819 17.9657 36.2664 17.2758 35.6768 16.6562C35.0539 16.0697 34.3599 15.6566 33.5273 15.3799C32.6949 15.1383 31.6548 15 30.374 15V15.002ZM40 10C38.3432 10 37 11.3431 37 13C37 14.6568 38.3432 16 40 16C41.6569 16 43 14.6568 43 13C43 11.3431 41.6569 10 40 10Z" fill="currentColor"/>
</symbol><symbol fill="currentColor" viewBox="0 0 256 256" id="icon-tel" xmlns="http://www.w3.org/2000/svg"><path d="M222.37,158.46l-47.11-21.11-.13-.06a16,16,0,0,0-15.17,1.4,8.12,8.12,0,0,0-.75.56L134.87,160c-15.42-7.49-31.34-23.29-38.83-38.51l20.78-24.71c.2-.25.39-.5.57-.77a16,16,0,0,0,1.32-15.06l0-.12L97.54,33.64a16,16,0,0,0-16.62-9.52A56.26,56.26,0,0,0,32,80c0,79.4,64.6,144,144,144a56.26,56.26,0,0,0,55.88-48.92A16,16,0,0,0,222.37,158.46ZM176,208A128.14,128.14,0,0,1,48,80,40.2,40.2,0,0,1,82.87,40a.61.61,0,0,0,0,.12l21,47L83.2,111.86a6.13,6.13,0,0,0-.57.77,16,16,0,0,0-1,15.7c9.06,18.53,27.73,37.06,46.46,46.11a16,16,0,0,0,15.75-1.14,8.44,8.44,0,0,0,.74-.56L168.89,152l47,21.05h0s.08,0,.11,0A40.21,40.21,0,0,1,176,208Z"/></symbol><symbol viewBox="0 0 50 50" fill="none" id="icon-tg" xmlns="http://www.w3.org/2000/svg">
<path fill-rule="evenodd" clip-rule="evenodd" d="M25 50C38.8071 50 50 38.8071 50 25C50 11.1929 38.8071 0 25 0C11.1929 0 0 11.1929 0 25C0 38.8071 11.1929 50 25 50ZM35.9886 15.9722C36.1813 13.7822 33.8686 14.6839 33.8686 14.6839C32.161 15.3908 30.4 16.1091 28.6199 16.8353C23.1004 19.0867 17.3981 21.4126 12.5406 23.7018C9.90665 24.668 11.4485 25.6343 11.4485 25.6343L15.6242 26.9225C17.5513 27.5022 18.5793 26.8581 18.5793 26.8581L27.573 20.7388C30.785 18.5487 30.0142 20.3524 29.2433 21.1253L22.4979 27.5666C21.4701 28.4684 21.984 29.2414 22.4337 29.6278C23.7082 30.7523 26.8433 32.8097 28.212 33.708C28.5682 33.9417 28.8048 34.0969 28.8578 34.1368C29.1791 34.3945 30.9135 35.5539 32.0699 35.2962C33.2262 35.0386 33.3547 33.5571 33.3547 33.5571L34.8965 23.4442C35.1278 21.6885 35.393 20.001 35.6049 18.6532C35.805 17.3801 35.9574 16.4102 35.9886 15.9722Z" fill="currentColor"/>
</symbol><symbol viewBox="0 0 48 48" fill="none" id="icon-vk" xmlns="http://www.w3.org/2000/svg">
<path d="M24 0C10.745 0 0 10.745 0 24C0 37.255 10.745 48 24 48C37.255 48 48 37.255 48 24C48 10.745 37.255 0 24 0ZM33.23 27.0775C33.23 27.0775 35.3525 29.1725 35.875 30.145C35.89 30.165 35.8975 30.185 35.9025 30.195C36.115 30.5525 36.165 30.83 36.06 31.0375C35.885 31.3825 35.285 31.5525 35.08 31.5675H31.33C31.07 31.5675 30.525 31.5 29.865 31.045C29.3575 30.69 28.8575 30.1075 28.37 29.54C27.6425 28.695 27.0125 27.965 26.3775 27.965C26.2968 27.9648 26.2167 27.9775 26.14 28.0025C25.66 28.1575 25.045 28.8425 25.045 30.6675C25.045 31.2375 24.595 31.565 24.2775 31.565H22.56C21.975 31.565 18.9275 31.36 16.2275 28.5125C12.9225 25.025 9.94749 18.03 9.92249 17.965C9.73499 17.5125 10.1225 17.27 10.545 17.27H14.3325C14.8375 17.27 15.0025 17.5775 15.1175 17.85C15.2525 18.1675 15.7475 19.43 16.56 20.85C17.8775 23.165 18.685 24.105 19.3325 24.105C19.4539 24.1036 19.5731 24.0726 19.68 24.015C20.525 23.545 20.3675 20.5325 20.33 19.9075C20.33 19.79 20.3275 18.56 19.895 17.97C19.585 17.5425 19.0575 17.38 18.7375 17.32C18.867 17.1412 19.0376 16.9964 19.235 16.8975C19.815 16.6075 20.86 16.565 21.8975 16.565H22.475C23.6 16.58 23.89 16.6525 24.2975 16.755C25.1225 16.9525 25.14 17.485 25.0675 19.3075C25.045 19.825 25.0225 20.41 25.0225 21.1C25.0225 21.25 25.015 21.41 25.015 21.58C24.99 22.5075 24.96 23.56 25.615 23.9925C25.7004 24.0461 25.7992 24.0746 25.9 24.075C26.1275 24.075 26.8125 24.075 28.6675 20.8925C29.2396 19.8681 29.7367 18.8037 30.155 17.7075C30.1925 17.6425 30.3025 17.4425 30.4325 17.365C30.5284 17.3161 30.6348 17.2912 30.7425 17.2925H35.195C35.68 17.2925 36.0125 17.365 36.075 17.5525C36.185 17.85 36.055 18.7575 34.0225 21.51L33.115 22.7075C31.2725 25.1225 31.2725 25.245 33.23 27.0775Z" fill="currentColor"/>
</symbol></svg>